<?xml version="1.0" encoding="utf-8"?>
<!-- Generator: Adobe Illustrator 16.0.4, SVG Export Plug-In . SVG Version: 6.00 Build 0)  -->
<!DOCTYPE svg PUBLIC "-//W3C//DTD SVG 1.1//EN" "http://www.w3.org/Graphics/SVG/1.1/DTD/svg11.dtd">
<svg version="1.1" id="Ebene_1" xmlns="http://www.w3.org/2000/svg" xmlns:xlink="http://www.w3.org/1999/xlink" x="0px" y="0px"
	 width="595.28px" height="841.89px" viewBox="0 0 595.28 841.89" enable-background="new 0 0 595.28 841.89" xml:space="preserve">
<path fill="#1C83C2" d="M316.229,438.134c0,0-9.329,2.627-18.698-2.844c-4.649-2.714-7.263-7.836-10.859-5.253
	c-1.857,1.334-0.834,4.006,1.833,3.696c4.251-0.493,8.898-5.562,11.18-16.564c2.781-13.415,10.086-14.199,13.898-10.419
	c3.813,3.782,4.132,12.133-5.491,14.101c-8.021,1.64-12.645-2.513-12.645-2.513l0.646-1.346c0,0,4.921,3.054,11.396,0.73
	c5.355-1.921,5.461-6.229,3.677-7.806c-1.829-1.614-5.637-0.366-7.399,8.482c-2.545,12.775-6.522,16.829-12.768,18.351
	c-9.75,2.375-12.462-7.836-5.876-11.108c5.776-2.87,10.159,1.918,13.464,3.963c9.236,5.714,16.398,1.004,16.398,1.004l0.201,0.92
	l-1.902,3.71l2.733,1.949L316.229,438.134z"/>
<g>
	<path d="M294.649,414.867c-0.563-0.301-2.707-0.033-2.707-0.033l-8.558-6.659c0,0-5.091-2.352-5.596-1.694
		c-0.41,0.533,2.265,3.255,3.969,4.287c1.703,1.034,12.329,6.818,12.329,6.818s0.629-0.021,0.927-0.727
		C295.313,416.154,295.211,415.174,294.649,414.867z"/>
	<path d="M283.846,419.359c0,0,3.486-13.923,3.591-15.211c0.105-1.291-2.305-2.361-2.797-1.836
		c-0.493,0.528-3.924,14.05-3.835,15.306C280.892,418.88,283.142,419.991,283.846,419.359z"/>
</g>
</svg>
