<?xml version="1.0" encoding="UTF-8" standalone="no"?>
<!-- Generator: Adobe Illustrator 16.0.4, SVG Export Plug-In . SVG Version: 6.00 Build 0)  -->

<svg
   xmlns:dc="http://purl.org/dc/elements/1.1/"
   xmlns:cc="http://creativecommons.org/ns#"
   xmlns:rdf="http://www.w3.org/1999/02/22-rdf-syntax-ns#"
   xmlns:svg="http://www.w3.org/2000/svg"
   xmlns="http://www.w3.org/2000/svg"
   xmlns:sodipodi="http://sodipodi.sourceforge.net/DTD/sodipodi-0.dtd"
   xmlns:inkscape="http://www.inkscape.org/namespaces/inkscape"
   version="1.1"
   id="Ebene_1"
   x="0px"
   y="0px"
   width="36"
   height="36"
   viewBox="0 0 35.999998 35.999999"
   enable-background="new 0 0 595.28 841.89"
   xml:space="preserve"
   inkscape:version="0.48.2 r9819"
   sodipodi:docname="C:\xampp\htdocs\loooping\img\favicon.svg"
   inkscape:export-filename="C:\xampp\htdocs\loooping\img\favicon.png"
   inkscape:export-xdpi="90"
   inkscape:export-ydpi="90"><metadata
   id="metadata3013"><rdf:RDF><cc:Work
       rdf:about=""><dc:format>image/svg+xml</dc:format><dc:type
         rdf:resource="http://purl.org/dc/dcmitype/StillImage" /><dc:title></dc:title></cc:Work></rdf:RDF></metadata><defs
   id="defs3011" /><sodipodi:namedview
   pagecolor="#ffffff"
   bordercolor="#666666"
   borderopacity="1"
   objecttolerance="10"
   gridtolerance="10"
   guidetolerance="10"
   inkscape:pageopacity="0"
   inkscape:pageshadow="2"
   inkscape:window-width="1293"
   inkscape:window-height="842"
   id="namedview3009"
   showgrid="false"
   fit-margin-top="0"
   fit-margin-left="0"
   fit-margin-right="0"
   fit-margin-bottom="0"
   inkscape:zoom="11.42192"
   inkscape:cx="9.2694461"
   inkscape:cy="18.771321"
   inkscape:window-x="0"
   inkscape:window-y="0"
   inkscape:window-maximized="0"
   inkscape:current-layer="Ebene_1" />
<path
   d="m 35.856618,35.339351 c 0,0 -9.329,2.752871 -18.698,-2.980268 -4.649,-2.84404 -7.2629997,-8.211457 -10.8589981,-5.504694 -1.857,1.397918 -0.834,4.197944 1.8329997,3.873092 4.2509984,-0.516623 8.8979984,-5.8285 11.1799984,-17.357653 2.781,-14.0577674 10.086,-14.8793324 13.898,-10.9182164 3.813,3.9632118 4.132,12.7143414 -5.491,14.7766374 -8.021,1.718579 -12.645,-2.63341 -12.645,-2.63341 l 0.646,-1.410492 c 0,0 4.921,3.20033 11.396,0.764978 5.355,-2.013044 5.461,-6.527456 3.677,-8.1800168 -1.829,-1.6913337 -5.637,-0.3835367 -7.399,8.8884068 -2.545,13.387105 -6.522,17.635349 -12.768,19.230275 -9.7499981,2.488797 -12.4619981,-8.211457 -5.8759981,-11.640232 5.7759981,-3.007514 10.1589981,2.009899 13.4639981,4.152885 9.236,5.987781 16.398,1.052106 16.398,1.052106 l 0.201,0.96408 -1.902,3.887762 2.733,2.042385 0.212,0.992375 z"
   id="path3001"
   inkscape:connector-curvature="0"
   style="fill:#1c83c2" />
<g
   id="g3003"
   transform="matrix(0.83875579,0,0,0.86849363,-232.96095,-348.84502)"
   inkscape:transform-center-x="-3.0642836"
   inkscape:transform-center-y="0.96306054">
	<path
   d="m 294.649,414.867 c -0.563,-0.301 -2.707,-0.033 -2.707,-0.033 l -8.558,-6.659 c 0,0 -5.091,-2.352 -5.596,-1.694 -0.41,0.533 2.265,3.255 3.969,4.287 1.703,1.034 12.329,6.818 12.329,6.818 0,0 0.629,-0.021 0.927,-0.727 0.3,-0.705 0.198,-1.685 -0.364,-1.992 z"
   id="path3005"
   inkscape:connector-curvature="0" />
	<path
   d="m 283.846,419.359 c 0,0 3.486,-13.923 3.591,-15.211 0.105,-1.291 -2.305,-2.361 -2.797,-1.836 -0.493,0.528 -3.924,14.05 -3.835,15.306 0.087,1.262 2.337,2.373 3.041,1.741 z"
   id="path3007"
   inkscape:connector-curvature="0" />
</g>
</svg>